<svg width="15" height="15" viewBox="0 0 15 15" fill="none" xmlns="http://www.w3.org/2000/svg">
<path d="M2.5 6.5V6H2V6.5H2.5ZM2.5 10.5H2V11H2.5V10.5ZM12.5 6.5H13V6H12.5V6.5ZM12.5 10.5V11H13V10.5H12.5ZM13.5 3.5H14V3.293L13.854 3.146L13.5 3.5ZM10.5 0.5L10.854 0.146L10.707 0H10.5V0.5ZM2 6.5V10.5H3V6.5H2ZM2.5 11H3.5V10H2.5V11ZM5 9.5V7.5H4V9.5H5ZM3.5 6H2.5V7H3.5V6ZM5 7.5C5 7.10218 4.84196 6.72064 4.56066 6.43934C4.27936 6.15804 3.89782 6 3.5 6V7C3.63261 7 3.75979 7.05268 3.85355 7.14645C3.94732 7.24021 4 7.36739 4 7.5H5ZM3.5 11C3.89782 11 4.27936 10.842 4.56066 10.5607C4.84196 10.2794 5 9.89782 5 9.5H4C4 9.63261 3.94732 9.75979 3.85355 9.85355C3.75979 9.94732 3.63261 10 3.5 10V11ZM6 7.5V9.5H7V7.5H6ZM9 9.5V7.5H8V9.5H9ZM9 7.5C9 7.10218 8.84196 6.72064 8.56066 6.43934C8.27936 6.15804 7.89782 6 7.5 6V7C7.63261 7 7.75979 7.05268 7.85355 7.14645C7.94732 7.24021 8 7.36739 8 7.5H9ZM7.5 11C7.89782 11 8.27936 10.842 8.56066 10.5607C8.84196 10.2794 9 9.89782 9 9.5H8C8 9.63261 7.94732 9.75979 7.85355 9.85355C7.75979 9.94732 7.63261 10 7.5 10V11ZM6 9.5C6 9.89782 6.15804 10.2794 6.43934 10.5607C6.72064 10.842 7.10218 11 7.5 11V10C7.36739 10 7.24021 9.94732 7.14645 9.85355C7.05268 9.75979 7 9.63261 7 9.5H6ZM7 7.5C7 7.36739 7.05268 7.24021 7.14645 7.14645C7.24021 7.05268 7.36739 7 7.5 7V6C7.10218 6 6.72064 6.15804 6.43934 6.43934C6.15804 6.72064 6 7.10218 6 7.5H7ZM10 6V11H11V6H10ZM10.5 7H12.5V6H10.5V7ZM12 6.5V8H13V6.5H12ZM10.5 11H12.5V10H10.5V11ZM13 10.5V9H12V10.5H13ZM2 5V1.5H1V5H2ZM13 3.5V5H14V3.5H13ZM2.5 1H10.5V0H2.5V1ZM10.146 0.854L13.146 3.854L13.854 3.146L10.854 0.146L10.146 0.854ZM2 1.5C2 1.36739 2.05268 1.24021 2.14645 1.14645C2.24021 1.05268 2.36739 1 2.5 1V0C2.10218 0 1.72064 0.158035 1.43934 0.43934C1.15804 0.720644 1 1.10218 1 1.5H2ZM1 12V13.5H2V12H1ZM2.5 15H12.5V14H2.5V15ZM14 13.5V12H13V13.5H14ZM12.5 15C12.8978 15 13.2794 14.842 13.5607 14.5607C13.842 14.2794 14 13.8978 14 13.5H13C13 13.6326 12.9473 13.7598 12.8536 13.8536C12.7598 13.9473 12.6326 14 12.5 14V15ZM1 13.5C1 13.8978 1.15804 14.2794 1.43934 14.5607C1.72064 14.842 2.10218 15 2.5 15V14C2.36739 14 2.24021 13.9473 2.14645 13.8536C2.05268 13.7598 2 13.6326 2 13.5H1Z" fill="black"/>
</svg>
